<svg width="20" height="25" viewBox="0 0 20 25" fill="none" xmlns="http://www.w3.org/2000/svg">
<path d="M14.2812 5.85938C14.5104 5.85938 14.901 5.89583 15.4531 5.96875C16.0052 6.04167 16.6094 6.25 17.2656 6.59375C17.9323 6.92708 18.5365 7.48438 19.0781 8.26562C19.0469 8.29688 18.8958 8.41146 18.625 8.60938C18.3542 8.79688 18.0521 9.07812 17.7188 9.45312C17.3854 9.81771 17.0938 10.2865 16.8438 10.8594C16.5938 11.4219 16.4688 12.0938 16.4688 12.875C16.4688 13.7708 16.625 14.5312 16.9375 15.1562C17.2604 15.7812 17.6302 16.2865 18.0469 16.6719C18.474 17.0469 18.849 17.3229 19.1719 17.5C19.5052 17.6771 19.6823 17.7708 19.7031 17.7812C19.6927 17.8229 19.5573 18.1927 19.2969 18.8906C19.0469 19.5885 18.6302 20.3646 18.0469 21.2188C17.5365 21.9583 16.9844 22.6406 16.3906 23.2656C15.8073 23.8906 15.1042 24.2031 14.2812 24.2031C13.7292 24.2031 13.276 24.125 12.9219 23.9688C12.5677 23.8021 12.2031 23.6406 11.8281 23.4844C11.4531 23.3177 10.9479 23.2344 10.3125 23.2344C9.69792 23.2344 9.18229 23.3177 8.76562 23.4844C8.35938 23.651 7.96875 23.8177 7.59375 23.9844C7.22917 24.151 6.79688 24.2344 6.29688 24.2344C5.53646 24.2344 4.86979 23.9323 4.29688 23.3281C3.72396 22.724 3.13542 22 2.53125 21.1562C1.83333 20.1562 1.23438 18.9375 0.734375 17.5C0.244792 16.0521 0 14.5938 0 13.125C0 11.5521 0.296875 10.2344 0.890625 9.17188C1.48438 8.09896 2.24479 7.29167 3.17188 6.75C4.10938 6.19792 5.07812 5.92188 6.07812 5.92188C6.60938 5.92188 7.10938 6.01042 7.57812 6.1875C8.04688 6.35417 8.48438 6.52604 8.89062 6.70312C9.30729 6.88021 9.68229 6.96875 10.0156 6.96875C10.3385 6.96875 10.7135 6.875 11.1406 6.6875C11.5677 6.5 12.0469 6.31771 12.5781 6.14062C13.1094 5.95312 13.6771 5.85938 14.2812 5.85938ZM13.4219 3.875C13.0156 4.36458 12.5052 4.77604 11.8906 5.10938C11.276 5.43229 10.6927 5.59375 10.1406 5.59375C10.026 5.59375 9.91667 5.58333 9.8125 5.5625C9.80208 5.53125 9.79167 5.47396 9.78125 5.39062C9.77083 5.30729 9.76562 5.21875 9.76562 5.125C9.76562 4.5 9.90104 3.89583 10.1719 3.3125C10.4427 2.71875 10.75 2.22917 11.0938 1.84375C11.5312 1.32292 12.0833 0.890625 12.75 0.546875C13.4167 0.203125 14.0521 0.0208333 14.6562 0C14.6875 0.135417 14.7031 0.296875 14.7031 0.484375C14.7031 1.10938 14.5833 1.71875 14.3438 2.3125C14.1042 2.89583 13.7969 3.41667 13.4219 3.875Z" fill="black"/>
</svg>
